# xmcd
#
# Track frame offsets: 
#        150
#        890
#        17157
#        34197
#        68112
#        86242
#        114310
#        132367
#        151885
#        161627
#        172710
#        195320
#        212150
#        229215
#        235472
#        251792
#        273965
#        292932
#
# Disc length: 4380 seconds
#
# Revision: 0
# Processed by: cddbd v1.4PL0 Copyright (c) Steve Scherf et al.
# Submitted via: ExactAudioCopy v0.95a3
#
DISCID=ea111a12
DTITLE=Vic Vergeat Band - No Compromise! CD1
DYEAR=1998
DGENRE=Blues
TTITLE0=Intro
TTITLE1=My Babe's Good To Me
TTITLE2=Hellhound On My Trail
TTITLE3=Like A Rolling Stone
TTITLE4=In The Midnight Hour
TTITLE5=It Took You Just One Minute
TTITLE6=Parchman Farm
TTITLE7=Cry
TTITLE8=Stairway To Heaven
TTITLE9=Babe I'm Gonna Leave You
TTITLE10=Little Wing
TTITLE11=You're Every Woman
TTITLE12=Julia's Got The Blues
TTITLE13=Big Rumble
TTITLE14=Relax
TTITLE15=Dangerous Pride
TTITLE16=Rock Me Baby
TTITLE17=I Want A Good Woman
EXTD=
EXTT0=
EXTT1=
EXTT2=
EXTT3=
EXTT4=
EXTT5=
EXTT6=
EXTT7=
EXTT8=
EXTT9=
EXTT10=
EXTT11=
EXTT12=
EXTT13=
EXTT14=
EXTT15=
EXTT16=
EXTT17=
PLAYORDER=
